<svg width="23" height="13" viewBox="0 0 23 13" fill="none" xmlns="http://www.w3.org/2000/svg">
<path fill-rule="evenodd" clip-rule="evenodd" d="M18.7822 3.90821C17.7179 2.66449 17.4173 1.10463 17.4787 0.0511073L16.1533 0C16.0821 1.21988 16.4178 3.03422 17.693 4.52456C18.157 5.06674 18.7393 5.55849 19.4567 5.96044H0V7.03951H19.4567C18.7393 7.44146 18.157 7.93321 17.693 8.47539C16.4178 9.96573 16.0821 11.7801 16.1533 13L17.4787 12.9489C17.4173 11.8953 17.7179 10.3354 18.7822 9.09174C19.6065 8.12848 20.9177 7.31822 23 7.09833V5.90162C20.9177 5.68173 19.6065 4.87147 18.7822 3.90821Z" fill="#004341"/>
</svg>
