<svg width="16" height="16" viewBox="0 0 16 16" fill="none" xmlns="http://www.w3.org/2000/svg">
<path d="M7.4965 2.7825C7.65084 2.33856 7.72797 2.11659 7.8421 2.05507C7.94084 2.00183 8.0597 2.00183 8.1585 2.05507C8.27257 2.11659 8.3497 2.33856 8.50404 2.7825L9.52424 5.71743C9.56817 5.84379 9.5901 5.90696 9.6297 5.954C9.66464 5.99556 9.70924 6.02796 9.75957 6.04836C9.8165 6.07146 9.88337 6.07282 10.0171 6.07555L13.1236 6.13885C13.5936 6.14843 13.8285 6.15322 13.9223 6.24272C14.0034 6.32018 14.0402 6.43327 14.02 6.54363C13.9968 6.67117 13.8096 6.8131 13.435 7.0971L10.959 8.97424C10.8524 9.05511 10.7991 9.0955 10.7666 9.14764C10.7378 9.19377 10.7208 9.24617 10.717 9.3003C10.7126 9.36164 10.732 9.42564 10.7707 9.5537L11.6705 12.5278C11.8066 12.9776 11.8746 13.2026 11.8185 13.3194C11.7699 13.4205 11.6737 13.4904 11.5625 13.5054C11.434 13.5226 11.2412 13.3884 10.8554 13.12L8.3049 11.3452C8.1951 11.2688 8.14024 11.2306 8.08057 11.2158C8.02784 11.2027 7.9727 11.2027 7.92004 11.2158C7.86037 11.2306 7.80544 11.2688 7.69564 11.3452L5.1452 13.12C4.75942 13.3884 4.56652 13.5226 4.43806 13.5054C4.32688 13.4904 4.23068 13.4205 4.18208 13.3194C4.12594 13.2026 4.19399 12.9776 4.33009 12.5278L5.22986 9.5537C5.26859 9.42564 5.28796 9.36164 5.2836 9.3003C5.27974 9.24617 5.26272 9.19377 5.23399 9.14764C5.20148 9.0955 5.14818 9.05511 5.04158 8.97424L2.56556 7.0971C2.19102 6.8131 2.00376 6.67117 1.98051 6.54363C1.96038 6.43327 1.99713 6.32018 2.07828 6.24272C2.17204 6.15322 2.407 6.14843 2.8769 6.13885L5.98344 6.07555C6.11717 6.07282 6.18404 6.07146 6.24102 6.04836C6.29134 6.02796 6.33593 5.99556 6.37088 5.954C6.41046 5.90696 6.43242 5.84379 6.47634 5.71743L7.4965 2.7825Z" fill="#004341"/>
</svg>
