<svg width="16" height="16" viewBox="0 0 16 16" fill="none" xmlns="http://www.w3.org/2000/svg">
<path d="M8.00016 14.6668C4.85746 14.6668 3.28612 14.6668 2.30981 13.6905C1.3335 12.7142 1.3335 11.1428 1.3335 8.00016C1.3335 4.85746 1.3335 3.28612 2.30981 2.30981C3.28612 1.3335 4.85746 1.3335 8.00016 1.3335C11.1428 1.3335 12.7142 1.3335 13.6905 2.30981C14.6668 3.28612 14.6668 4.85746 14.6668 8.00016C14.6668 11.1428 14.6668 12.7142 13.6905 13.6905C12.7142 14.6668 11.1428 14.6668 8.00016 14.6668Z" fill="#004341"/>
<path d="M8 3.5C8.27613 3.5 8.5 3.72386 8.5 4V12C8.5 12.2761 8.27613 12.5 8 12.5C7.72387 12.5 7.5 12.2761 7.5 12V4C7.5 3.72386 7.72387 3.5 8 3.5Z" fill="white"/>
<path d="M4.6665 5.5C4.94264 5.5 5.1665 5.72386 5.1665 6V12C5.1665 12.2761 4.94264 12.5 4.6665 12.5C4.39036 12.5 4.1665 12.2761 4.1665 12V6C4.1665 5.72386 4.39036 5.5 4.6665 5.5Z" fill="white"/>
<path d="M11.3335 8.1665C11.6096 8.1665 11.8335 8.39037 11.8335 8.6665V11.9998C11.8335 12.276 11.6096 12.4998 11.3335 12.4998C11.0574 12.4998 10.8335 12.276 10.8335 11.9998V8.6665C10.8335 8.39037 11.0574 8.1665 11.3335 8.1665Z" fill="white"/>
</svg>
